<svg width="512" height="512" viewBox="0 0 512 512" fill="none" xmlns="http://www.w3.org/2000/svg">
<path d="M352 248V232C352 227.58 348.42 224 344 224H168C163.58 224 160 227.58 160 232V248C160 252.42 163.58 256 168 256H344C348.42 256 352 252.42 352 248ZM168 192H344C348.42 192 352 188.42 352 184V168C352 163.58 348.42 160 344 160H168C163.58 160 160 163.58 160 168V184C160 188.42 163.58 192 168 192ZM494.59 164.52C492.61 162.89 472.4 146.61 448 126.99V96C448 78.33 433.67 64 416 64H369.53C365.4 60.69 361.82 57.84 359.33 55.86C337.23 38.19 299.44 0 256 0C212.79 0 175.36 37.72 152.66 55.86C150.13 57.87 146.56 60.73 142.46 64H96C78.33 64 64 78.33 64 96V126.98C39.48 146.69 19.25 162.99 17.52 164.41C12.0435 168.912 7.63217 174.571 4.60291 180.98C1.57366 187.39 0.00170263 194.391 0 201.48L0 464C0 490.51 21.49 512 48 512H464C490.51 512 512 490.51 512 464V201.51C512 187.2 505.62 173.63 494.59 164.52V164.52ZM256 32C277.77 32 300.64 48.72 319.14 64H192.9C211.43 48.73 234.32 32 256 32ZM96 96H416V269.35C383.67 295.35 350.7 321.79 329.41 338.69C312.56 352.12 279.22 384.37 256 384C232.79 384.38 199.44 352.12 182.59 338.68C161.3 321.78 128.35 295.35 96 269.34V96V96ZM32 201.48C32 196.68 34.13 192.17 37.84 189.12C39.08 188.1 49.46 179.74 64 168.04V243.59C52.47 234.31 41.49 225.46 32 217.81V201.48V201.48ZM480 464C480 472.82 472.82 480 464 480H48C39.18 480 32 472.82 32 464V258.91C74.75 293.35 131.31 338.83 162.68 363.73C183.17 380.09 219.42 416.26 256 415.99C292.45 416.25 328.27 380.53 349.31 363.73C380.72 338.8 437.24 293.34 480 258.9V464ZM480 217.81C470.38 225.56 459.73 234.15 448 243.6V168.06C462.44 179.68 472.8 188.03 474.2 189.18C477.89 192.23 480 196.72 480 201.51V217.81V217.81Z" fill="#7F7F7F"/>
</svg>
