<svg width="512" height="512" viewBox="0 0 512 512" fill="none" xmlns="http://www.w3.org/2000/svg">
<g clip-path="url(#clip0)">
<path d="M462.3 62.7C407.8 16.3 326.3 24 275.7 76.2L256 96.6L236.3 76.3C195.5 34.1 113.2 8.7 49.6996 62.7C-13.1004 116.3 -16.4004 212.5 39.7996 270.5L233.3 470.3C239.5 476.7 247.7 480 255.9 480C264.1 480 272.3 476.8 278.5 470.3L472 270.5C528.4 212.5 525.1 116.3 462.3 62.7V62.7ZM449.2 248.3L256.4 448.1L62.7996 248.3C24.3996 208.7 16.3996 133.2 70.4996 87.1C125.3 40.3 189.7 74.2 213.3 98.6L256 142.7L298.7 98.6C321.9 74.6 386.9 40.6 441.5 87.1C495.5 133.1 487.6 208.6 449.2 248.3Z" fill="white"/>
</g>
<defs>
<clipPath id="clip0">
<rect width="512" height="512" fill="white"/>
</clipPath>
</defs>
</svg>
