<svg width="512" height="512" viewBox="0 0 512 512" fill="none" xmlns="http://www.w3.org/2000/svg">
<g clip-path="url(#clip0)">
<path d="M509.8 227.5L448 177.8V101.8C448 98.5001 445.3 95.8001 442 95.8001H422C418.7 95.8001 416 98.5001 416 101.8V151.9L276.1 39.1001C264.4 29.6001 247.6 29.6001 235.9 39.1001L2.20021 227.5C-0.399787 229.6 -0.799787 233.4 1.30021 235.9L13.9002 251.5C16.0002 254.1 19.8002 254.5 22.4002 252.4L64.0002 218.9V447.9C64.0002 465.6 78.3002 479.9 96.0002 479.9H212C218.6 479.9 224 474.5 224 467.9V335.8L288 336.1V468.3C288 474.9 293.4 480.3 300 480.3L416 480C433.7 480 448 465.7 448 448V219L489.6 252.5C492.2 254.6 496 254.2 498.1 251.6L510.7 236C512.8 233.4 512.3 229.6 509.8 227.5V227.5ZM416 448L320 448.3V316C320 309.4 314.6 304 308 304L204 303.7C197.4 303.7 192 309.1 192 315.7V448H96.0002V193.1L252.2 67.1001C254.4 65.3001 257.5 65.3001 259.7 67.1001L415.9 193.1V448H416Z" fill="#518CFF"/>
</g>
<defs>
<clipPath id="clip0">
<rect width="512" height="512" fill="white"/>
</clipPath>
</defs>
</svg>
