<svg width="576" height="512" viewBox="0 0 576 512" fill="none" xmlns="http://www.w3.org/2000/svg">
<path d="M528 32H112C85.49 32 64 53.49 64 80V96H48C21.49 96 0 117.49 0 144V432C0 458.51 21.49 480 48 480H464C490.51 480 512 458.51 512 432V416H528C554.51 416 576 394.51 576 368V80C576 53.49 554.51 32 528 32ZM480 432C480 440.822 472.822 448 464 448H48C39.178 448 32 440.822 32 432V144C32 135.178 39.178 128 48 128H64V368C64 394.51 85.49 416 112 416H480V432ZM544 368C544 376.822 536.822 384 528 384H112C103.178 384 96 376.822 96 368V80C96 71.178 103.178 64 112 64H528C536.822 64 544 71.178 544 80V368ZM176 200C206.928 200 232 174.928 232 144C232 113.072 206.928 88 176 88C145.072 88 120 113.072 120 144C120 174.928 145.072 200 176 200ZM176 120C189.234 120 200 130.766 200 144C200 157.234 189.234 168 176 168C162.766 168 152 157.234 152 144C152 130.766 162.766 120 176 120ZM416.971 143.029C407.598 133.656 392.403 133.656 383.03 143.029L288 238.059L256.971 207.029C247.598 197.656 232.402 197.656 223.03 207.029L135.03 295.029C130.529 299.53 128 305.635 128 312V340C128 346.627 133.373 352 140 352H500C506.627 352 512 346.627 512 340V248C512 241.635 509.471 235.53 504.971 231.029L416.971 143.029ZM480 320H160V315.314L240 235.314L288 283.314L400 171.314L480 251.314V320Z" fill="#7F7F7F"/>
</svg>
