<svg width="576" height="512" viewBox="0 0 576 512" fill="none" xmlns="http://www.w3.org/2000/svg">
<path d="M312 128C312 114.74 301.25 104 288 104C274.75 104 264 114.74 264 128C264 141.25 274.75 152 288 152C301.25 152 312 141.26 312 128ZM560.02 160C558.06 160 556.04 160.37 554.06 161.16L384.01 224H384L373.73 220.38C397.03 185.52 416.01 149.18 416.01 123.05C416 55.09 358.69 0 288 0C217.31 0 160 55.09 160 123.05C160 134.85 164.02 148.8 170.39 163.69L20.12 215.96C7.97 220.81 0 232.58 0 245.67V495.99C0 505.17 7.53 512 15.99 512C17.95 512 19.96 511.63 21.95 510.84L192 448L364 508.71C376.99 513.045 391.028 513.097 404.05 508.86L555.88 456.05C561.819 453.676 566.91 449.577 570.497 444.281C574.083 438.985 576 432.736 576 426.34V176.02C576 166.83 568.47 160 560.02 160ZM176 419.8L31.91 473.05L30.63 246.18L176 195.61V419.8ZM288 32C340.94 32 384 72.84 384 123.05C384 150.05 345.91 211.94 288 279.82C230.1 211.94 192 150.05 192 123.05C192 72.84 235.06 32 288 32ZM368 476.19L208 419.71V228.82C232.42 264.09 260.14 296.82 275.71 314.48C278.95 318.16 283.48 320 288 320C292.52 320 297.05 318.16 300.29 314.48C313.05 300.01 333.99 275.37 354.57 247.54L367.99 252.28V476.19H368ZM400 476.39V252.21L544.09 198.95L545.37 425.82L400 476.39Z" fill="#7F7F7F"/>
</svg>
